PathFileType	4	(X/Y/Z)	43_1_23_p0_0-376_filt_butterworth.trc
DataRate	CameraRate	NumFrames	NumMarkers	Units	OrigDataRate	OrigDataStartFrame	OrigNumFrames
60.0	60.0	7	27	m	60.0	235	376
Frame#	Time	RHip			RKnee			RAnkle			RBigToe			RSmallToe			RHeel			LHip			LKnee			LAnkle			LBigToe			LSmallToe			LHeel			Neck			Head			Nose			RShoulder			RElbow			RWrist			RThumb			RIndex			RPinky			LShoulder			LElbow			LWrist			LThumb			LIndex			LPinky			
		X1	Y1	Z1	X2	Y2	Z2	X3	Y3	Z3	X4	Y4	Z4	X5	Y5	Z5	X6	Y6	Z6	X7	Y7	Z7	X8	Y8	Z8	X9	Y9	Z9	X10	Y10	Z10	X11	Y11	Z11	X12	Y12	Z12	X13	Y13	Z13	X14	Y14	Z14	X15	Y15	Z15	X16	Y16	Z16	X17	Y17	Z17	X18	Y18	Z18	X19	Y19	Z19	X20	Y20	Z20	X21	Y21	Z21	X22	Y22	Z22	X23	Y23	Z23	X24	Y24	Z24	X25	Y25	Z25	X26	Y26	Z26	X27	Y27	Z27	
235	3.9166666666666665	0.24458432789584658	0.8872415104502954	0.5185631198317602	0.18955985236969738	0.417910171546265	0.5586914222683909	0.15564415777629112	0.04233086209915703	0.5437248265897895	0.14211905012911377	0.04214551892996851	0.3830268077701585	0.21096914526069865	0.04990521618202279	0.38305751024246093	0.1148751072671473	-0.03462432998054177	0.6076682488296616	0.04302484106596091	0.903770770093325	0.5002129126793454	-0.003893696844194302	0.4602018339869909	0.5195440243745549	-0.02739096110276141	0.04392556717886782	0.5192904261013281	-0.006370952746697585	0.06461178673814702	0.3523781774836437	-0.06380591834012851	0.05127746196329133	0.39091320377931715	-0.03362134578499215	-0.02469992861631999	0.5613057034698755	0.17801247246933288	1.4838588195650206	0.549566949306084	0.1933712107754737	1.7273214708516307	0.5346716441282425	0.19790104936812525	1.6204359148036211	0.4342041933509268	0.31818943270429223	1.3783315809690975	0.5287591805408843	0.35427420412894617	1.0947847324740174	0.5345205282186678	0.32712378569593337	0.8485166180305892	0.43616870043069256	0.23867830292348258	0.7364202607189149	0.3891298364363448	0.254618760040469	0.7340771056254161	0.3667604838035255	0.2840230612088221	0.707319001778954	0.43650365622716786	0.02136130091892402	1.4062487267295498	0.5261836463699742	-0.09705624780518554	1.1558701030021772	0.541928699855915	0.03638019587154169	1.1185366489977382	0.40490346354052914	0.15072751070298954	1.1647087430474592	0.39909493604213697	0.15492250733349805	1.124460401380942	0.41397322480262544	0.11990706448134511	1.0679891730664504	0.4039141029545378	
236	3.933333333333333	0.24458539043166094	0.8872520747996842	0.5185723362334712	0.18936470002366296	0.4183261670182561	0.5575682466146945	0.1556563673097646	0.04200141373226204	0.5441939859814172	0.14226620699498851	0.04140616523482251	0.38408480263803274	0.21096732199263923	0.04991160676890563	0.3830907571536278	0.11483563570464055	-0.034441310530002635	0.6077549926913377	0.043004652872709284	0.9037773743847174	0.5002141835664305	-0.003940862681130971	0.4612746814961487	0.5186839141794363	-0.027315694124925852	0.04419441749244296	0.5192991297018151	-0.006378148228038674	0.06438481316224509	0.352470461746381	-0.06396309368601653	0.05069502555385355	0.3913070025835902	-0.03362221688932682	-0.02469362223465499	0.5613171276439427	0.178012151389824	1.4834510304317106	0.549572585698005	0.19321184126669586	1.7267008950457026	0.535094812937102	0.19783564617838795	1.6189839285914278	0.4342455055489538	0.3181794463374197	1.3783853696252928	0.5287751647182879	0.3542813782563645	1.094872481261136	0.534663373088861	0.32816458242566326	0.8487548565706577	0.43383125822913143	0.2387458064208816	0.7360615452768087	0.38887510782389856	0.25480797275569744	0.7340907454577221	0.36666490037779553	0.28342372214997125	0.7073564598088564	0.4367907277366969	0.020839667565323836	1.4055824734230202	0.5284107275246313	-0.09708401435043358	1.1557528921474203	0.5419697215460721	0.03638233323434055	1.1184886601582027	0.4048485819358968	0.15077741222256674	1.1647374746945696	0.4000695744315	0.15491749735605778	1.1241533860233741	0.41394506368365674	0.11985564825813907	1.0677504146139984	0.4043467617244158	
237	3.95	0.24458814894550235	0.8872048369623872	0.518537022127078	0.18919784388709696	0.41889869949914693	0.5563759686625676	0.1556330792354819	0.041947195545928614	0.5442790645566394	0.1423381148543112	0.04062406449829163	0.3851770525128365	0.21095266366189835	0.04992988927117489	0.3831248762538599	0.11478737778751642	-0.034128986408333326	0.6078781533777494	0.042984091663346415	0.9037874655733154	0.5002082235819092	-0.003983827892239839	0.4619752620669874	0.5180487066680153	-0.02725359880264112	0.044417718070035694	0.519307736624039	-0.006391507674191674	0.06450164388352377	0.35255595746432666	-0.06465206157205244	0.04957633047566219	0.39246560138866715	-0.03362280407481536	-0.02468275447587459	0.561327525200305	0.17805158395763943	1.483095508655511	0.5495684388688743	0.19320012018298943	1.7260148691467647	0.5352436068584228	0.19784226967495339	1.617332641861709	0.4342290475713303	0.31816804774283813	1.3784943212761098	0.5288060708219314	0.35434208195344374	1.0948608423756108	0.5348368639039899	0.3292936058331866	0.8490722744230289	0.43125871183286235	0.2387599546958466	0.7357066212290504	0.3885530242809333	0.2548586434825047	0.7340534009682053	0.3666282033000667	0.2828786553481386	0.7069533749101903	0.4366260510057289	0.019923503441427022	1.4048402640273792	0.5320331180150955	-0.09714476729810964	1.1553833371967632	0.5419825914325785	0.03644398564461916	1.1181980079194302	0.40473902361908165	0.15088691490924397	1.1646948845389806	0.4017406896298257	0.15488294455543422	1.124068910316642	0.41397737180826466	0.11986601117131379	1.0673859926134632	0.40496283160164626	
238	3.966666666666667	0.24458868560971533	0.8871640498301224	0.5184759531495294	0.18906160806095973	0.4195584571563816	0.5551905091317274	0.1555893176061314	0.04214652353443634	0.5440174157564326	0.14231213900620593	0.03998754167794128	0.38605671796263485	0.2109302163827522	0.04996412704536389	0.3831587204216501	0.11473887563284675	-0.03373974953497954	0.6080268744376924	0.0429647471561883	0.903777744869318	0.5002173054371903	-0.004031986063704563	0.46223308786372347	0.5176466327355145	-0.02720240862756218	0.04459933585637248	0.519316634770687	-0.006417532686694587	0.06517343088069524	0.35265733337709276	-0.06585404824366448	0.047985659370411216	0.3943460637910311	-0.033623265204695794	-0.024668393214575222	0.56133689357008	0.17814333468258114	1.4825116046179008	0.5495374312206329	0.19325811802728052	1.7251856455007935	0.5350797418606004	0.19794230052206033	1.615628632341738	0.4340754799016532	0.3181509358528581	1.3785950402875375	0.5288700796524218	0.3544470278176045	1.0946041232983297	0.5349774093370627	0.3303946179105559	0.8494584898922704	0.42871176228931546	0.23866787466616918	0.7352481437898286	0.38835322182440196	0.25482140873746156	0.7339810345895071	0.3666479530248975	0.28251871945353	0.7061081601241568	0.43646389767926164	0.018750828831679694	1.4038617906642024	0.5365185871863467	-0.09723684681104368	1.1547624812146646	0.5419781841056296	0.036538224943480704	1.1176531953932074	0.40455204095969555	0.15103509263753248	1.16459995695551	0.40387563170368557	0.15482610724155227	1.1241414776758452	0.4140338955207922	0.1201441862971574	1.0669455654075262	0.40579980091660384	
239	3.983333333333333	0.24458347243026904	0.8871930540662305	0.5184095208690835	0.18894212079302872	0.4202244565918295	0.5541012882698161	0.15554311728754594	0.04246416322075368	0.5435982631568228	0.14219334550245277	0.03961488495102458	0.3865715161645336	0.21090757269459842	0.05001392078688041	0.38318734042927044	0.11468628298079568	-0.0333474960235594	0.6081865945497471	0.04294577222892616	0.9037518030862901	0.500237179418164	-0.004085126095846992	0.46213938088333095	0.5174786947593409	-0.027161463031643376	0.044742650448420206	0.5193245895305263	-0.0064492585973904655	0.06635779229380984	0.3527933899783363	-0.06739242449478852	0.04614853873992479	0.39668345395016996	-0.03362331719980189	-0.024653006532042037	0.5613446140816969	0.17822167616178686	1.4815389496538955	0.5494219110147086	0.19319862142386657	1.7241866060560191	0.5346561091776051	0.19803603052180963	1.6139691925159367	0.43381477378614686	0.3181260925644274	1.3786406670883153	0.5289416681186877	0.35452692866752467	1.0940775329879855	0.5350021443295255	0.3313159492318922	0.8497906566658063	0.42651283098148945	0.23848963993706515	0.7346039583426092	0.38825621517367015	0.2547642470168938	0.7338898425958216	0.3667072233580265	0.2823510783664129	0.7049171877023489	0.43650206592248897	0.017523277786726434	1.4025542803176687	0.5411925473103079	-0.09734864824285866	1.153975961215553	0.5419640226954366	0.036641145819458716	1.116907087122945	0.40431231505141335	0.15119556125617592	1.1644947898522484	0.4061738751363722	0.15475331694826241	1.124270389309854	0.4141034620678452	0.12082265638123119	1.066555617499249	0.4066846024409921	
240	4.0	0.24457198860463789	0.8873273401074302	0.5183505182494158	0.18882818535229864	0.42083207609779516	0.553169064641488	0.15550814771556604	0.04270782324743125	0.5432826150967706	0.14201664698157287	0.03965594890142142	0.38653805395404733	0.2108933106365702	0.05007625638544934	0.38320616525063084	0.11461865878261412	-0.033000257569597805	0.6083437605523384	0.04292668977359003	0.9037231632740382	0.5002563240256839	-0.004134160649977646	0.46190897824530375	0.5175411610613034	-0.0271312914272267	0.04484992660125829	0.5193296439892332	-0.006471466828385694	0.06779517759548676	0.3529561489989009	-0.06903854693890718	0.0443422208702224	0.39914092324883677	-0.033622857072300366	-0.02463773801446001	0.5613500976444665	0.1781599899217196	1.4802390336326823	0.5491538888052814	0.1928845258796084	1.723043327671169	0.5340472924940449	0.1979111536856178	1.6123677457278165	0.43371526915971137	0.31810725067527124	1.3785639549003306	0.5289399750364314	0.3544732952062809	1.0933483134594335	0.5348182089260496	0.3318302492255407	0.8498520525952212	0.42515012515434697	0.2382769459415498	0.733798933370985	0.38818971999523966	0.25473970581342414	0.7338157106947609	0.3667418115730186	0.28220756308760125	0.7035904604443561	0.4366688150372541	0.01646709337869175	1.4010399507536622	0.545371739978095	-0.09746607999891102	1.1531458976610753	0.5419308502632231	0.03674090817858073	1.1160618511424454	0.404064092651514	0.15135224963496874	1.1644198255406515	0.40831797603925446	0.1546551388261263	1.1243899775809878	0.4141835174371295	0.12186411560514754	1.0664891724733205	0.4071367372630455	
241	4.016666666666667	0.24455666641266582	0.8875571669282647	0.518301294111408	0.1887242240240857	0.4213558858884376	0.5524148552592171	0.1554871930336467	0.04279647963131382	0.5431772400428677	0.14184100276872263	0.04020697826063707	0.3858517214355705	0.21089309620985158	0.05014554831542156	0.3832153229434704	0.11453645068773036	-0.03271259160085221	0.6084675460971299	0.04290925664043652	0.9037025210651118	0.5002679514422745	-0.0041692782250342805	0.4617086107678797	0.5178237183967977	-0.027112298123355943	0.044922970410616506	0.5193308556388287	-0.006472019330861159	0.06912217753683621	0.3531149582807022	-0.0705659536311209	0.042805960957846154	0.40139162395058026	-0.0336224069649933	-0.024622471499472477	0.5613539902203267	0.17787054097034788	1.4788158627227972	0.5487083732746965	0.19230615121377842	1.7218626011168876	0.5333389005257647	0.19738442604971876	1.6107401469733642	0.4341398634561048	0.3181303626539414	1.3783235863696872	0.5287549600929737	0.35420769877277797	1.092456309106253	0.5343773578222482	0.3317361120679144	0.8494863254015849	0.4250709885023733	0.23808594966354668	0.7330139020030002	0.38812940758878944	0.25479260758034816	0.7338309098660251	0.3666164764292923	0.281942251562992	0.7024085279733441	0.4368289660926058	0.015759783010621354	1.3996002729245827	0.5484602893549857	-0.09757528393654705	1.1523986051059043	0.5418594467569118	0.03683755110157701	1.1152945692756866	0.40385848750196185	0.1515008877668283	1.1644038804838872	0.4100072937730008	0.15451349349092244	1.1244762831799033	0.4142671344428212	0.12309627843539134	1.0670020505901332	0.40663580218019013	
